<svg xmlns="http://www.w3.org/2000/svg" viewBox="0 0 63.2 12.38"><defs><style>.cls-1{fill:#231f20;}</style></defs><title>cloudforest logo</title><g id="Layer_2" data-name="Layer 2"><g id="La_Corona" data-name="La Corona"><path class="cls-1" d="M3.39,3.3c.5,0,1.93.22,1.93.85A1.46,1.46,0,0,1,4.9,5H4.84A2.33,2.33,0,0,0,3.12,3.87c-1.19,0-1.61,1.32-1.61,2.35,0,1.42.78,2.55,2,2.55A3.93,3.93,0,0,0,5.46,8l0,0A2.52,2.52,0,0,1,3,9.66a2.92,2.92,0,0,1-2.89-3A3.24,3.24,0,0,1,3.39,3.3Z"/><path class="cls-1" d="M3,9.78A3,3,0,0,1,0,6.67a3.37,3.37,0,0,1,3.39-3.5c.41,0,2.06.17,2.06,1A1.57,1.57,0,0,1,5,5l0,0H4.77l0-.06A2.22,2.22,0,0,0,3.12,4C2,4,1.64,5.39,1.64,6.22c0,1.41.79,2.43,1.88,2.43a3.83,3.83,0,0,0,1.87-.75l.09-.07L5.65,8l0,.07A2.67,2.67,0,0,1,3,9.78Zm.37-6.36A3.12,3.12,0,0,0,.25,6.67,2.78,2.78,0,0,0,3,9.53,2.43,2.43,0,0,0,5.27,8.28a3.58,3.58,0,0,1-1.75.62c-1.23,0-2.13-1.13-2.13-2.68,0-1.23.54-2.48,1.73-2.48A2.34,2.34,0,0,1,4.88,4.79a1.24,1.24,0,0,0,.32-.64C5.19,3.68,4,3.43,3.39,3.43Z"/><path class="cls-1" d="M6.93,4.72c0-1.13,0-2.21-.06-3A3.43,3.43,0,0,0,6.65.4l0,0c.8,0,1.55.14,1.55.89,0,1.21,0,2.47,0,3.74,0,1.07,0,2.16,0,3.21,0,.41.12.79.54.79a.86.86,0,0,0,.46-.17l0,0a1.37,1.37,0,0,1-1.33.74,1,1,0,0,1-1.08-1C6.87,7.57,6.93,6.11,6.93,4.72Z"/><path class="cls-1" d="M7.95,9.72a1.09,1.09,0,0,1-1.2-1.17c0-.45,0-1,0-1.6s0-1.49,0-2.24c0-1.08,0-2.16-.06-3A3.65,3.65,0,0,0,6.55.47l0-.07L6.63.23h.06c.5,0,1.67,0,1.67,1,0,.6,0,1.21,0,1.83s0,1.27,0,1.91c0,1.22,0,2.27,0,3.21,0,.59.23.67.41.67a.74.74,0,0,0,.38-.14l.07-.06.2.15,0,.09A1.49,1.49,0,0,1,7.95,9.72ZM6.82.48A5.34,5.34,0,0,1,7,1.74c0,.81.06,1.9.06,3,0,.76,0,1.55,0,2.25S7,8.11,7,8.56a.85.85,0,0,0,1,.92,1.36,1.36,0,0,0,1-.39l-.19,0c-.29,0-.64-.16-.66-.91,0-.94,0-2,0-3.22,0-.64,0-1.29,0-1.92s0-1.23,0-1.82S7.73.51,6.82.48Z"/><path class="cls-1" d="M13.06,3.3a2.83,2.83,0,0,1,3,2.85,3.23,3.23,0,0,1-3.17,3.5,2.91,2.91,0,0,1-3-3A3.12,3.12,0,0,1,13.06,3.3Zm0,5.8c1.07,0,1.58-1.37,1.58-2.73s-.56-2.52-1.72-2.52-1.57,1.28-1.57,2.57S11.92,9.11,13.06,9.11Z"/><path class="cls-1" d="M12.94,9.78A3,3,0,0,1,9.77,6.63a3.24,3.24,0,0,1,3.29-3.45,2.94,2.94,0,0,1,3.17,3A3.37,3.37,0,0,1,12.94,9.78Zm.12-6.36a3,3,0,0,0-3,3.2,2.79,2.79,0,0,0,2.92,2.91,3.1,3.1,0,0,0,3-3.38A2.71,2.71,0,0,0,13.06,3.43Zm0,5.8c-1.26,0-1.83-1.46-1.83-2.81s.52-2.69,1.7-2.69,1.84,1.37,1.84,2.64S14.23,9.23,13.06,9.23ZM12.93,4c-1,0-1.45,1.27-1.45,2.44S12,9,13.06,9s1.46-1.35,1.46-2.61S14,4,12.93,4Z"/><path class="cls-1" d="M17.55,6.11c0-.29,0-.91,0-1.49a2.77,2.77,0,0,0-.24-1.15,2.65,2.65,0,0,1,.59-.11c.54,0,1,.29,1,.77,0,1,0,1.74,0,2.94,0,1,.07,1.83,1,1.83C21,8.9,21.3,7.44,21.3,6.41c0-.78,0-1.44-.06-1.86A4,4,0,0,0,21,3.47a2.12,2.12,0,0,1,.59-.11c.56,0,1,.29,1,.78,0,1.13-.1,2.24-.1,3.6,0,.48,0,1.25.6,1.25a.86.86,0,0,0,.46-.17l0,0a1.37,1.37,0,0,1-1.33.74.86.86,0,0,1-1-.85.92.92,0,0,1,0-.11h-.06a2,2,0,0,1-1.92,1c-1.56,0-1.87-.92-1.87-1.91C17.52,7.25,17.55,6.72,17.55,6.11Z"/><path class="cls-1" d="M19.4,9.78a1.77,1.77,0,0,1-2-2c0-.24,0-.49,0-.75s0-.58,0-.9,0-.91,0-1.48a2.87,2.87,0,0,0-.22-1.09l-.11-.15.3-.07a2.07,2.07,0,0,1,.5-.08c.66,0,1.14.38,1.14.89s0,.9,0,1.34,0,1,0,1.6c0,1.13.14,1.71.88,1.71,1,0,1.33-1.28,1.33-2.37,0-.73,0-1.41-.06-1.85a4.1,4.1,0,0,0-.19-1l-.06-.13.14,0a2.27,2.27,0,0,1,.62-.11c.68,0,1.16.37,1.16.9s0,1.07,0,1.64-.05,1.25-.05,2,.15,1.12.47,1.12a.73.73,0,0,0,.38-.14l.07-.06.2.15,0,.09a1.49,1.49,0,0,1-1.45.82A1,1,0,0,1,21.25,9,2.24,2.24,0,0,1,19.4,9.78ZM17.46,3.55a3.78,3.78,0,0,1,.18,1.06c0,.58,0,1.2,0,1.5s0,.62,0,.9,0,.5,0,.74c0,.83.2,1.78,1.75,1.78a1.91,1.91,0,0,0,1.8-1l0-.09.28.05,0,.12a.75.75,0,0,0,0,.09c0,.67.65.73.85.73a1.36,1.36,0,0,0,1-.39l-.19,0c-.72,0-.72-1-.72-1.37,0-.71,0-1.35.05-2s0-1.09,0-1.63-.47-.65-.91-.65a1.68,1.68,0,0,0-.43.07,5.73,5.73,0,0,1,.17,1c0,.45.06,1.13.06,1.87C21.43,7.62,21,9,19.85,9s-1.13-1.18-1.13-2c0-.63,0-1.13,0-1.6s0-.85,0-1.33-.45-.64-.89-.64A1.71,1.71,0,0,0,17.46,3.55Z"/><path class="cls-1" d="M27.84,3.35a3.7,3.7,0,0,1,.65.06c0-.62,0-1.2,0-1.67A3.43,3.43,0,0,0,28.23.4l0,0c.8,0,1.55.14,1.55.89,0,1.15-.06,2.3-.06,3.74,0,1.07,0,2.16.06,3.21,0,.41.12.79.54.79a.86.86,0,0,0,.46-.17l0,0a1.37,1.37,0,0,1-1.33.74c-.49,0-1-.19-1-.86l0,0a2.07,2.07,0,0,1-1.87.95c-1.38,0-2.27-1.13-2.27-2.76A3.26,3.26,0,0,1,27.84,3.35Zm.62,3.57c0-.4,0-1.06,0-1.46V4.35c0-.37-.4-.43-.83-.43-1.27,0-1.92,1.34-1.92,2.69,0,.83.23,2.29,1.33,2.29S28.44,7.75,28.47,6.92Z"/><path class="cls-1" d="M26.58,9.78c-1.43,0-2.39-1.16-2.39-2.88a3.37,3.37,0,0,1,3.65-3.68,3.62,3.62,0,0,1,.52,0c0-.58,0-1.11,0-1.51a3.65,3.65,0,0,0-.2-1.29l0-.07L28.2.23h.06c.5,0,1.67,0,1.67,1,0,.54,0,1.09,0,1.66s0,1.32,0,2.08c0,1,0,2,.06,3.21,0,.59.23.67.42.67a.73.73,0,0,0,.38-.14l.07-.06.2.15,0,.09a1.49,1.49,0,0,1-1.45.82A1,1,0,0,1,28.41,9,2.27,2.27,0,0,1,26.58,9.78Zm1.26-6.31a3.14,3.14,0,0,0-3.4,3.43c0,1.57.86,2.63,2.14,2.63a1.93,1.93,0,0,0,1.76-.88l.06-.11.22.11v.07c0,.61.49.74.89.74a1.36,1.36,0,0,0,1-.39l-.19,0c-.42,0-.65-.31-.67-.91C29.64,7,29.62,6,29.62,5c0-.76,0-1.43,0-2.08s0-1.12,0-1.66S29.31.51,28.39.48a5.34,5.34,0,0,1,.17,1.26c0,.44,0,1,0,1.67v.15l-.15,0A3.55,3.55,0,0,0,27.84,3.48ZM27.09,9C26,9,25.63,7.77,25.63,6.6c0-1.4.7-2.81,2-2.81.29,0,1,0,1,.56V5.46c0,.34,0,.85,0,1.25v.22C28.56,7.94,28.15,9,27.09,9Zm.59-5C26.5,4,25.88,5.33,25.88,6.6c0,.36.06,2.17,1.21,2.17s1.25-1.54,1.25-1.85V6.7c0-.39,0-.9,0-1.24V4.35C28.38,4.19,28.29,4,27.67,4Z"/><path class="cls-1" d="M31.52,12.25a.81.81,0,0,1-.42-.11v-.06c.74-.29,1.09-.77,1.09-5.4,0-2.09-.08-2.4-.55-2.58L31.32,4v-.5c.5,0,.82-.11.82-.72,0-1.82,1-2.64,2.41-2.64,1.2,0,2,.59,2,1.39l-.06,0A1.75,1.75,0,0,0,35,.93,1.47,1.47,0,0,0,33.46,2.6v.32c0,.16,0,.56,0,.56h.86a1.16,1.16,0,0,0,.65-.12,3,3,0,0,1,0,.32c0,.5-.24.61-.67.61h-.8c0,.47,0,.92,0,1.36,0,1.22,0,2.47,0,4.2C33.46,11.36,32.54,12.25,31.52,12.25Z"/><path class="cls-1" d="M31.52,12.38a.93.93,0,0,1-.48-.13l-.06,0V12l.08,0c.65-.25,1-.62,1-5.28,0-2.07-.09-2.31-.47-2.46l-.39-.15V3.36h.13c.48,0,.69-.09.69-.59C32,1,32.94,0,34.55,0c1.24,0,2.1.62,2.1,1.52v.07l-.23.14-.06-.11A1.67,1.67,0,0,0,35,1.05a1.35,1.35,0,0,0-1.4,1.54v.32c0,.1,0,.3,0,.44h.73a1.15,1.15,0,0,0,.57-.1L35,3.15l0,.19a2.48,2.48,0,0,1,0,.34c0,.65-.38.74-.8.74h-.69c0,.38,0,.79,0,1.23s0,1.12,0,1.73,0,1.52,0,2.46A2.25,2.25,0,0,1,31.52,12.38Zm-.17-.27.17,0c.9,0,1.82-.79,1.82-2.29,0-.94,0-1.73,0-2.46s0-1.18,0-1.74,0-.94,0-1.37V4.16h.92c.43,0,.55-.1.55-.49,0-.06,0-.1,0-.14a1.94,1.94,0,0,1-.53.06h-1V3.47s0-.4,0-.55V2.6A1.6,1.6,0,0,1,35,.8a2.17,2.17,0,0,1,1.38.44c-.16-.59-.87-1-1.82-1-1.47,0-2.29.89-2.29,2.51,0,.68-.38.82-.82.84v.3l.23.09c.55.21.63.56.63,2.69C32.31,10.89,32,11.74,31.35,12.11Z"/><path class="cls-1" d="M38.62,3.3a2.83,2.83,0,0,1,3,2.85,3.23,3.23,0,0,1-3.17,3.5,2.91,2.91,0,0,1-3-3A3.12,3.12,0,0,1,38.62,3.3Zm0,5.8c1.07,0,1.58-1.37,1.58-2.73s-.56-2.52-1.72-2.52-1.57,1.28-1.57,2.57S37.48,9.11,38.62,9.11Z"/><path class="cls-1" d="M38.5,9.78a3,3,0,0,1-3.17-3.16,3.24,3.24,0,0,1,3.29-3.45,2.94,2.94,0,0,1,3.17,3A3.37,3.37,0,0,1,38.5,9.78Zm.12-6.36a3,3,0,0,0-3,3.2A2.79,2.79,0,0,0,38.5,9.53a3.1,3.1,0,0,0,3-3.38A2.71,2.71,0,0,0,38.62,3.43Zm0,5.8c-1.26,0-1.83-1.46-1.83-2.81s.52-2.69,1.7-2.69,1.84,1.37,1.84,2.64S39.79,9.23,38.62,9.23ZM38.49,4C37.49,4,37,5.25,37,6.42S37.53,9,38.62,9s1.46-1.35,1.46-2.61S39.58,4,38.49,4Z"/><path class="cls-1" d="M43.2,6.59c0-2.43-.25-3.07-.3-3.12a2.11,2.11,0,0,1,.59-.11c.55,0,1,.28,1,.77a1.86,1.86,0,0,1-.08.44h0a2.13,2.13,0,0,1,1.81-1.22c.47,0,.59.2.59.47a2.6,2.6,0,0,1-.14.85l-.06,0a2.37,2.37,0,0,0-1-.34c-.94,0-1.2,1-1.2,2.3,0,2.36.25,2.79.28,2.81a5.9,5.9,0,0,1-.84.12c-.44,0-.76-.18-.76-.92S43.2,7.25,43.2,6.59Z"/><path class="cls-1" d="M43.9,9.72c-.6,0-.88-.33-.88-1,0-.37,0-.74,0-1.09s0-.67,0-1a8.47,8.47,0,0,0-.27-3l-.15-.15.21,0a2.21,2.21,0,0,1,.62-.11c.64,0,1.07.34,1.1.85a2.25,2.25,0,0,1,1.65-.85c.47,0,.71.2.71.59a2.73,2.73,0,0,1-.15.9l0,.05-.16.06,0,0a2.29,2.29,0,0,0-.9-.32c-.73,0-1.07.69-1.07,2.18a8.17,8.17,0,0,0,.24,2.71l.32.16-.39.06-.25,0A3.43,3.43,0,0,1,43.9,9.72Zm-.82-6.17a11.56,11.56,0,0,1,.25,3c0,.33,0,.66,0,1s0,.72,0,1.08c0,.67.24.8.63.8a3.24,3.24,0,0,0,.56-.07l.1,0a10.44,10.44,0,0,1-.22-2.71c0-1,.14-2.43,1.32-2.43a2.26,2.26,0,0,1,.93.31,2.58,2.58,0,0,0,.11-.72c0-.17,0-.34-.46-.34a2,2,0,0,0-1.7,1.15l0,.1-.28-.07,0-.13a1.69,1.69,0,0,0,.08-.41c0-.47-.46-.64-.85-.64A1.63,1.63,0,0,0,43.08,3.55Z"/><path class="cls-1" d="M50.28,3.3c1.58,0,2.21.9,2.21,1.71,0,1.2-1.26,1.63-2.31,1.63a3.14,3.14,0,0,1-1.32-.34l0,0c0,1.44.67,2.42,1.91,2.42a3.59,3.59,0,0,0,1.88-.68l.06.06a2.33,2.33,0,0,1-2.42,1.52,2.82,2.82,0,0,1-2.79-3A3.11,3.11,0,0,1,50.28,3.3ZM49.93,6a1,1,0,0,0,1.13-1c0-.56-.25-1.15-.94-1.15-.85,0-1.31,1.45-1.31,1.91C48.82,5.86,49.43,6,49.93,6Z"/><path class="cls-1" d="M50.23,9.78a2.94,2.94,0,0,1-2.92-3.15,3.22,3.22,0,0,1,3-3.46c1.61,0,2.33.92,2.33,1.84,0,1.21-1.23,1.76-2.44,1.76a3.19,3.19,0,0,1-1.24-.28c0,1.35.7,2.14,1.78,2.14A3.47,3.47,0,0,0,52.52,8l.09-.07.19.19,0,.07A2.47,2.47,0,0,1,50.23,9.78Zm0-6.36a3,3,0,0,0-2.72,3.21,2.7,2.7,0,0,0,2.67,2.9,2.27,2.27,0,0,0,2.21-1.21,3.48,3.48,0,0,1-1.73.56c-1.25,0-2-1-2-2.55V6.26l.18-.09.06,0a3,3,0,0,0,1.26.32c1,0,2.19-.39,2.19-1.51C52.36,4.28,51.82,3.43,50.28,3.43Zm-.35,2.75c-.36,0-1.24-.14-1.24-.41,0-.52.49-2,1.43-2,.78,0,1.06.69,1.06,1.28A1.15,1.15,0,0,1,49.93,6.17Zm-1-.46a2.51,2.51,0,0,0,1,.21.91.91,0,0,0,1-.92c0-.24-.06-1-.81-1S49,5.25,48.95,5.72Z"/><path class="cls-1" d="M53.81,8.15h.06A2.56,2.56,0,0,0,55.74,9c.78,0,1.06-.41,1.06-.83,0-1.24-3.12-1.06-3.12-3.09A2,2,0,0,1,55.9,3.3c.48,0,1.81.18,1.81.67a1.56,1.56,0,0,1-.43.86h-.06a2,2,0,0,0-1.5-1,.9.9,0,0,0-.94.91c0,1.22,3.12.92,3.12,3.07a2.06,2.06,0,0,1-2.29,1.85c-.79,0-2-.34-2-.85A1.68,1.68,0,0,1,53.81,8.15Z"/><path class="cls-1" d="M55.61,9.78c-.78,0-2.16-.33-2.16-1a1.83,1.83,0,0,1,.26-.72l0-.06h.19l0,0a2.46,2.46,0,0,0,1.77.82c.59,0,.93-.26.93-.7s-.55-.71-1.2-1c-.86-.39-1.92-.87-1.92-2.1A2.1,2.1,0,0,1,55.9,3.18c.38,0,1.94.14,1.94.8a1.67,1.67,0,0,1-.47.95l0,0h-.19l0-.06S56.55,4,55.72,4a.77.77,0,0,0-.81.79c0,.44.54.67,1.16.93.87.37,2,.83,2,2.14A2.19,2.19,0,0,1,55.61,9.78ZM53.86,8.32a1.33,1.33,0,0,0-.16.49c0,.37,1.08.73,1.91.73,1.08,0,2.17-.59,2.17-1.72s-1-1.55-1.81-1.91c-.67-.29-1.31-.56-1.31-1.16a1,1,0,0,1,1.06-1,2,2,0,0,1,1.54,1,1.38,1.38,0,0,0,.33-.7c0-.33-1.11-.55-1.69-.55-1,0-2.09.57-2.09,1.66s.9,1.47,1.78,1.87c.69.31,1.34.61,1.34,1.23,0,.46-.31,1-1.18,1A2.67,2.67,0,0,1,53.86,8.32Z"/><path class="cls-1" d="M59.44,5.2c0-1-.08-1.07-.55-1.21v-.5a3.38,3.38,0,0,0,1.81-1.4l.28.1-.24,1.31h1a1.16,1.16,0,0,0,.65-.12,3,3,0,0,1,0,.32c0,.5-.24.61-.67.61l-1,0s0,1.42,0,2.33c0,1.19.11,2.2,1,2.2A2.53,2.53,0,0,0,63,8.23l.06,0A2,2,0,0,1,61.2,9.66c-1.4,0-1.81-1-1.81-2.33C59.39,6.55,59.44,5.65,59.44,5.2Z"/><path class="cls-1" d="M61.2,9.78c-1.3,0-1.94-.8-1.94-2.45,0-.44,0-.92,0-1.34s0-.6,0-.79c0-.95-.05-1-.46-1.09l-.09,0V3.36h.13A3.37,3.37,0,0,0,60.58,2l0-.11.49.17-.23,1.26h.83a1.15,1.15,0,0,0,.57-.1l.16-.11,0,.19a2.48,2.48,0,0,1,0,.34c0,.65-.38.74-.8.74l-.85,0c0,.37,0,1.46,0,2.2,0,1.31.15,2.07.91,2.07a2.42,2.42,0,0,0,1.19-.54L63,8.07l.2.16,0,.08A2.11,2.11,0,0,1,61.2,9.78ZM59,3.9c.47.16.55.31.55,1.3,0,.2,0,.48,0,.8s0,.9,0,1.34c0,1.52.52,2.2,1.69,2.2a1.78,1.78,0,0,0,1.63-1,2.2,2.2,0,0,1-1.1.41c-1.07,0-1.16-1.2-1.16-2.32,0-.9,0-2.32,0-2.33V4.15h.13l1,0c.43,0,.55-.1.55-.49,0-.06,0-.1,0-.14a1.94,1.94,0,0,1-.53.06H60.58l.25-1.35-.07,0A3.83,3.83,0,0,1,59,3.59Z"/></g></g></svg>